# xmcd CD database file
#
# Track frame offsets:
#	150
#	10568
#	22340
#	33513
#	42933
#	53659
#	64239
#	75770
#	87851
#	99513
#	111831
#	124250
#	136716
#	153420
#	166420
#	176931
#	189622
#	205924
#	218696
#	231030
#	244905
#	256501
#	267918
#	279584
#	292569
#	303154
#	311736
#
# Disc length: 4301 seconds
#
# Revision: 1
# Processed by: cddbd v1.5.1PL2 Copyright (c) Steve Scherf et al.
# Submitted via: CDex 1.51
#
DISCID=6910cb1b
DTITLE=Hank Snow - The Singing Ranger, Vol3 (02)
DYEAR=1992
DGENRE=Country
TTITLE0=Chasin' A Rainbow
TTITLE1=The Last Ride
TTITLE2=Doggone That Train
TTITLE3=Father Time And Mother Love
TTITLE4=I Heard My Heart Break Last Night
TTITLE5=Walkin' And Talkin'
TTITLE6=Rockin' Rollin' Ocean (with wave effect)
TTITLE7=Miller's Cave
TTITLE8=Dreamer Island
TTITLE9=The Change Of The Tide
TTITLE10=I'm Movin' On
TTITLE11=The Golden Rocket
TTITLE12=My Mother
TTITLE13=I Don't Hurt Anymore
TTITLE14=Conscience I'm Guilty
TTITLE15=I'm Asking For A Friend
TTITLE16=Bluebird Island
TTITLE17=(Now And Then There's) A Fool Such As I
TTITLE18=Marriage Vow
TTITLE19=With This Ring I Thee Wed
TTITLE20=Rockin' Rollin' Ocean (without wave effect)
TTITLE21=My Nova Scotia Home
TTITLE22=The Tramp's Story
TTITLE23=Life Time Blues
TTITLE24=Maple Leaves
TTITLE25=Casey's Washerwoman Boogie (instrumental)
TTITLE26=Hawaiian Sunset (instrumental)
EXTD=YEAR: 1992
EXTT0=
EXTT1=
EXTT2=
EXTT3=
EXTT4=
EXTT5=
EXTT6=
EXTT7=
EXTT8=
EXTT9=
EXTT10=
EXTT11=
EXTT12=
EXTT13=
EXTT14=
EXTT15=
EXTT16=
EXTT17=
EXTT18=
EXTT19=
EXTT20=
EXTT21=
EXTT22=
EXTT23=
EXTT24=
EXTT25=
EXTT26=
PLAYORDER=
